<?xml version="1.0" encoding="UTF-8" standalone="no"?>
<!-- Generator: Adobe Illustrator 23.0.6, SVG Export Plug-In . SVG Version: 6.00 Build 0)  -->

<svg
   version="1.1"
   id="Layer_1"
   x="0px"
   y="0px"
   viewBox="0 0 300 300"
   xml:space="preserve"
   sodipodi:docname="Gisma Business School Logo 2022-02-20.svg"
   width="300"
   height="300"
   inkscape:version="1.1.1 (3bf5ae0d25, 2021-09-20)"
   xmlns:inkscape="http://www.inkscape.org/namespaces/inkscape"
   xmlns:sodipodi="http://sodipodi.sourceforge.net/DTD/sodipodi-0.dtd"
   xmlns="http://www.w3.org/2000/svg"
   xmlns:svg="http://www.w3.org/2000/svg"><defs
   id="defs57" /><sodipodi:namedview
   id="namedview55"
   pagecolor="#ffffff"
   bordercolor="#111111"
   borderopacity="1"
   inkscape:pageshadow="0"
   inkscape:pageopacity="0"
   inkscape:pagecheckerboard="1"
   showgrid="false"
   fit-margin-top="0"
   fit-margin-left="0"
   fit-margin-right="0"
   fit-margin-bottom="0"
   inkscape:zoom="1.2938026"
   inkscape:cx="218.34861"
   inkscape:cy="135.64666"
   inkscape:window-width="1600"
   inkscape:window-height="837"
   inkscape:window-x="-8"
   inkscape:window-y="-8"
   inkscape:window-maximized="1"
   inkscape:current-layer="Layer_1" />
<style
   type="text/css"
   id="style2">
	.st0{fill:#51AD32;}
	.st1{fill:#1D1D1B;}
	.st2{fill:#FFFFFF;}
</style>
<rect
   y="129.21367"
   class="st0"
   width="300"
   height="170.78633"
   id="rect4"
   x="0"
   style="stroke-width:1.68379" />
<rect
   width="300"
   height="130.51019"
   id="rect6"
   x="0"
   y="0"
   style="stroke-width:1.68379" />
<path
   class="st1"
   d="m 61.441322,184.00405 c 1.448055,0.69035 2.609867,1.70062 3.485435,2.99713 0.858731,1.29652 1.296515,2.81193 1.296515,4.49571 0,2.54252 -0.892406,4.68092 -2.677219,6.41522 -1.784812,1.7343 -3.973733,2.59303 -6.549924,2.59303 H 43.27328 V 168.6816 h 12.729416 c 2.492002,0 4.596733,0.84189 6.314194,2.492 1.734299,1.66695 2.593029,3.72117 2.593029,6.1795 -0.01684,2.82875 -1.161811,5.03451 -3.468597,6.65095 z M 55.985858,172.6385 h -8.503115 v 9.73228 h 8.503115 c 1.33019,0 2.458326,-0.47146 3.36757,-1.41438 0.909244,-0.94292 1.363866,-2.0879 1.363866,-3.45176 0,-1.33019 -0.454622,-2.47517 -1.380704,-3.43493 -0.942919,-0.95975 -2.054217,-1.43121 -3.350732,-1.43121 z m 0.993433,23.90975 c 1.431218,0 2.626705,-0.50514 3.586463,-1.49857 0.976595,-0.99344 1.448055,-2.2226 1.448055,-3.68749 0,-1.43122 -0.488298,-2.64354 -1.481731,-3.63698 -0.976595,-0.99343 -2.172083,-1.49857 -3.569625,-1.49857 h -9.47971 v 10.32161 z"
   id="path8"
   style="stroke-width:1.68379" /><path
   class="st1"
   d="m 93.399565,198.02998 c -2.205759,2.05422 -5.085031,3.06449 -8.587304,3.06449 -3.502274,0 -6.381546,-1.02711 -8.620981,-3.06449 -2.222596,-2.03738 -3.333894,-4.78195 -3.333894,-8.20004 v -21.1315 h 4.2263 v 20.96312 c 0,2.23944 0.673515,4.02425 2.003705,5.3376 1.33019,1.31336 3.249705,1.97003 5.72487,1.97003 2.475164,0 4.394679,-0.65667 5.724869,-1.97003 1.330191,-1.31335 2.003705,-3.09816 2.003705,-5.3376 v -20.96312 h 4.175787 v 21.1315 c 0,3.41809 -1.111298,6.14582 -3.317057,8.20004 z"
   id="path10"
   style="stroke-width:1.68379" /><path
   class="st1"
   d="m 115.72656,201.09447 c -2.96347,0 -5.50598,-0.69036 -7.61071,-2.0879 -2.10473,-1.39754 -3.58646,-3.30022 -4.42836,-5.72487 l 3.63698,-2.08789 c 1.246,3.85587 4.07476,5.77538 8.50311,5.77538 2.18892,0 3.85587,-0.45462 5.00085,-1.34703 1.14497,-0.8924 1.73429,-2.08789 1.73429,-3.56962 0,-1.51541 -0.57248,-2.66038 -1.73429,-3.41808 -1.16182,-0.75771 -3.08133,-1.56592 -5.77539,-2.40782 -1.33019,-0.45462 -2.34046,-0.80821 -3.03081,-1.04394 -0.70719,-0.23573 -1.58276,-0.623 -2.62671,-1.16182 -1.04394,-0.52197 -1.81848,-1.07762 -2.34046,-1.63327 -0.52197,-0.55565 -0.97659,-1.29651 -1.3807,-2.20576 -0.40411,-0.90924 -0.60616,-1.93635 -0.60616,-3.09816 0,-2.76141 0.97659,-4.95033 2.91294,-6.56676 1.93636,-1.61644 4.31049,-2.42465 7.08874,-2.42465 2.50884,0 4.69776,0.63983 6.56676,1.90267 1.869,1.27968 3.26655,2.96347 4.20947,5.05136 l -3.55279,2.05422 c -1.36387,-3.26655 -3.77168,-4.91666 -7.22344,-4.91666 -1.7343,0 -3.115,0.42095 -4.17579,1.27968 -1.06078,0.85873 -1.58275,2.00371 -1.58275,3.45176 0,1.39754 0.50513,2.45833 1.49856,3.18235 0.99344,0.72403 2.72774,1.48174 5.18606,2.27312 0.85873,0.30308 1.48173,0.52197 1.85217,0.65667 0.37043,0.1347 0.94292,0.33676 1.71746,0.60616 0.77454,0.26941 1.34703,0.50514 1.70062,0.69036 0.35359,0.18521 0.85873,0.43778 1.48173,0.77454 0.623,0.33675 1.07762,0.65667 1.3807,0.95975 0.30309,0.30309 0.65668,0.67352 1.06079,1.1113 0.40411,0.43779 0.70719,0.89241 0.89241,1.34703 0.18521,0.45462 0.33675,0.9766 0.47146,1.56592 0.1347,0.58933 0.20205,1.22916 0.20205,1.88584 0,2.79508 -1.01027,5.00084 -3.04765,6.66779 -2.07106,1.63327 -4.7146,2.45833 -7.98114,2.45833 z"
   id="path12"
   style="stroke-width:1.68379" /><path
   class="st1"
   d="m 133.7599,168.6816 h 4.2263 v 31.82354 h -4.2263 z"
   id="path14"
   style="stroke-width:1.68379" /><path
   class="st1"
   d="m 166.86311,168.6816 h 4.2263 v 31.82354 h -3.40124 l -16.36639,-23.77505 v 23.77505 h -4.2263 V 168.6816 h 3.26654 l 16.50109,23.89291 z"
   id="path16"
   style="stroke-width:1.68379" /><path
   class="st1"
   d="m 184.40816,196.49773 h 14.76679 v 4.00741 H 180.16502 V 168.6816 h 18.7742 v 4.00741 h -14.5479 v 9.76595 h 13.40293 v 3.9569 h -13.40293 v 10.08587 z"
   id="path18"
   style="stroke-width:1.68379" /><path
   class="st1"
   d="m 216.82102,201.09447 c -2.96346,0 -5.50598,-0.69036 -7.61071,-2.0879 -2.10473,-1.39754 -3.58646,-3.30022 -4.42835,-5.72487 l 3.63697,-2.08789 c 1.246,3.85587 4.07476,5.77538 8.50312,5.77538 2.18892,0 3.85587,-0.45462 5.00084,-1.34703 1.14497,-0.8924 1.7343,-2.08789 1.7343,-3.56962 0,-1.51541 -0.57249,-2.66038 -1.7343,-3.41808 -1.16181,-0.75771 -3.08133,-1.56592 -5.77538,-2.40782 -1.33019,-0.45462 -2.34047,-0.80821 -3.03082,-1.04394 -0.70719,-0.23573 -1.58276,-0.623 -2.6267,-1.16182 -1.04395,-0.52197 -1.81849,-1.07762 -2.34046,-1.63327 -0.52198,-0.55565 -0.9766,-1.29651 -1.38071,-2.20576 -0.40411,-0.90924 -0.60616,-1.93635 -0.60616,-3.09816 0,-2.76141 0.9766,-4.95033 2.91295,-6.56676 1.93635,-1.61644 4.31049,-2.42465 7.08873,-2.42465 2.50884,0 4.69776,0.63983 6.56677,1.90267 1.869,1.27968 3.26654,2.96347 4.20946,5.05136 l -3.55279,2.05422 c -1.36386,-3.26655 -3.77168,-4.91666 -7.22344,-4.91666 -1.73429,0 -3.115,0.42095 -4.17578,1.27968 -1.06079,0.85873 -1.58276,2.00371 -1.58276,3.45176 0,1.39754 0.50513,2.45833 1.49857,3.18235 0.99343,0.72403 2.72773,1.48174 5.18606,2.27312 0.85873,0.30308 1.48173,0.52197 1.85216,0.65667 0.37043,0.1347 0.94292,0.33676 1.71746,0.60616 0.77454,0.26941 1.34703,0.50514 1.70062,0.69036 0.3536,0.18521 0.85873,0.43778 1.48173,0.77454 0.62301,0.33675 1.07763,0.65667 1.38071,0.95975 0.30308,0.30309 0.65667,0.67352 1.06078,1.1113 0.40411,0.43779 0.70719,0.89241 0.89241,1.34703 0.18522,0.45462 0.33676,0.9766 0.47146,1.56592 0.1347,0.58933 0.20205,1.22916 0.20205,1.88584 0,2.79508 -1.01027,5.00084 -3.04765,6.66779 -2.05422,1.63327 -4.69776,2.45833 -7.98114,2.45833 z"
   id="path20"
   style="stroke-width:1.68379" /><path
   class="st1"
   d="m 244.28356,201.09447 c -2.96347,0 -5.50598,-0.69036 -7.61071,-2.0879 -2.10473,-1.39754 -3.58646,-3.30022 -4.42836,-5.72487 l 3.63698,-2.08789 c 1.246,3.85587 4.07476,5.77538 8.50311,5.77538 2.18892,0 3.85587,-0.45462 5.00085,-1.34703 1.14497,-0.8924 1.73429,-2.08789 1.73429,-3.56962 0,-1.51541 -0.57248,-2.66038 -1.73429,-3.41808 -1.16182,-0.75771 -3.08133,-1.56592 -5.77539,-2.40782 -1.33019,-0.45462 -2.34046,-0.80821 -3.03081,-1.04394 -0.70719,-0.23573 -1.58276,-0.623 -2.62671,-1.16182 -1.04394,-0.52197 -1.81848,-1.07762 -2.34046,-1.63327 -0.52197,-0.55565 -0.97659,-1.29651 -1.3807,-2.20576 -0.40411,-0.90924 -0.60616,-1.93635 -0.60616,-3.09816 0,-2.76141 0.97659,-4.95033 2.91294,-6.56676 1.93636,-1.61644 4.3105,-2.42465 7.08874,-2.42465 2.50884,0 4.69776,0.63983 6.56676,1.90267 1.869,1.27968 3.26655,2.96347 4.20947,5.05136 l -3.55279,2.05422 c -1.36387,-3.26655 -3.77168,-4.91666 -7.22344,-4.91666 -1.7343,0 -3.115,0.42095 -4.17579,1.27968 -1.06078,0.85873 -1.58275,2.00371 -1.58275,3.45176 0,1.39754 0.50513,2.45833 1.49856,3.18235 0.99344,0.72403 2.72774,1.48174 5.18606,2.27312 0.85873,0.30308 1.48173,0.52197 1.85217,0.65667 0.37043,0.1347 0.94292,0.33676 1.71746,0.60616 0.77454,0.26941 1.34703,0.50514 1.70062,0.69036 0.3536,0.18521 0.85873,0.43778 1.48173,0.77454 0.623,0.33675 1.07762,0.65667 1.3807,0.95975 0.30309,0.30309 0.65668,0.67352 1.06079,1.1113 0.40411,0.43779 0.70719,0.89241 0.89241,1.34703 0.18521,0.45462 0.33675,0.9766 0.47146,1.56592 0.1347,0.58933 0.20205,1.22916 0.20205,1.88584 0,2.79508 -1.01027,5.00084 -3.04765,6.66779 -2.05422,1.63327 -4.69776,2.45833 -7.98114,2.45833 z"
   id="path22"
   style="stroke-width:1.68379" /><path
   class="st1"
   d="m 65.448731,248.9308 c -2.963462,0 -5.505978,-0.69035 -7.610709,-2.08789 -2.104732,-1.39754 -3.586463,-3.30022 -4.428355,-5.72487 l 3.636976,-2.08789 c 1.246001,3.85587 4.07476,5.77538 8.503115,5.77538 2.188921,0 3.855868,-0.45462 5.000842,-1.34703 1.144974,-0.8924 1.734299,-2.08789 1.734299,-3.56962 0,-1.51541 -0.572487,-2.66038 -1.734299,-3.41809 -1.161812,-0.7577 -3.081327,-1.56592 -5.775383,-2.40781 -1.330191,-0.45462 -2.340462,-0.80822 -3.030814,-1.04395 -0.70719,-0.23573 -1.582758,-0.623 -2.626705,-1.16181 -1.043946,-0.52197 -1.818488,-1.07762 -2.340461,-1.63327 -0.521973,-0.55565 -0.976595,-1.29651 -1.380704,-2.20576 -0.404108,-0.90924 -0.606163,-1.93635 -0.606163,-3.09816 0,-2.76141 0.976596,-4.95033 2.912949,-6.56677 1.936353,-1.61643 4.31049,-2.42465 7.088735,-2.42465 2.50884,0 4.697761,0.63984 6.566763,1.90268 1.869001,1.27968 3.266543,2.96346 4.209463,5.05136 l -3.552787,2.05421 c -1.363866,-3.26654 -3.771679,-4.91665 -7.223439,-4.91665 -1.734298,0 -3.115002,0.42095 -4.175787,1.27968 -1.060784,0.85873 -1.582758,2.0037 -1.582758,3.45176 0,1.39754 0.505136,2.45832 1.498569,3.18235 0.993433,0.72403 2.727732,1.48173 5.186058,2.27311 0.858731,0.30308 1.481731,0.52198 1.852164,0.65668 0.370433,0.1347 0.94292,0.33676 1.717461,0.60616 0.774541,0.26941 1.347028,0.50514 1.700623,0.69035 0.353595,0.18522 0.85873,0.43779 1.481731,0.77454 0.623001,0.33676 1.077623,0.65668 1.380704,0.95976 0.303081,0.30308 0.656676,0.67352 1.060785,1.1113 0.404108,0.43778 0.707189,0.89241 0.892406,1.34703 0.185216,0.45462 0.336757,0.97659 0.47146,1.56592 0.134702,0.58932 0.202054,1.22916 0.202054,1.88584 0,2.79508 -1.010271,5.00084 -3.047651,6.66779 -2.054218,1.63327 -4.714599,2.45832 -7.981142,2.45832 z"
   id="path26"
   style="stroke-width:1.68379" /><path
   class="st1"
   d="m 98.450921,248.9308 c -4.815626,0 -8.789359,-1.59959 -11.938037,-4.76511 -3.131841,-3.18235 -4.697761,-7.08873 -4.697761,-11.73598 0,-4.63041 1.56592,-8.55363 4.697761,-11.73598 3.13184,-3.18236 7.122411,-4.76512 11.938037,-4.76512 2.912949,0 5.590169,0.69036 8.031659,2.0879 2.44148,1.39754 4.34416,3.26654 5.70803,5.64068 l -3.68749,2.13841 c -0.90925,-1.75114 -2.27311,-3.16552 -4.07476,-4.20947 -1.80165,-1.04394 -3.78852,-1.56592 -5.977439,-1.56592 -3.670652,0 -6.66779,1.17865 -8.974575,3.55279 -2.323624,2.3573 -3.485436,5.32076 -3.485436,8.85671 0,3.51911 1.161812,6.4489 3.485436,8.82303 2.323623,2.3573 5.303923,3.55279 8.974575,3.55279 2.188919,0 4.175789,-0.52197 5.977439,-1.56592 1.80165,-1.04395 3.16551,-2.42465 4.07476,-4.15895 l 3.68749,2.08789 c -1.33019,2.3573 -3.23287,4.24314 -5.6912,5.65752 -2.45832,1.39754 -5.13554,2.10473 -8.048489,2.10473 z"
   id="path28"
   style="stroke-width:1.68379" /><path
   class="st1"
   d="m 138.91228,216.51794 h 4.17579 v 31.82354 h -4.17579 V 234.0293 h -15.45715 v 14.31218 h -4.2263 v -31.82354 h 4.2263 v 13.50396 h 15.45715 z"
   id="path30"
   style="stroke-width:1.68379" /><path
   class="st1"
   d="m 178.66645,244.11518 c -3.19919,3.21603 -7.10558,4.81562 -11.70231,4.81562 -4.61357,0 -8.50311,-1.59959 -11.68547,-4.81562 -3.18235,-3.21603 -4.76511,-7.10558 -4.76511,-11.68547 0,-4.61357 1.59959,-8.50312 4.76511,-11.70231 3.18236,-3.19919 7.0719,-4.79879 11.68547,-4.79879 4.61357,0 8.50312,1.5996 11.70231,4.79879 3.19919,3.19919 4.79879,7.10558 4.79879,11.70231 0,4.57989 -1.5996,8.46944 -4.79879,11.68547 z m -20.45799,-2.89611 c 2.34046,2.37413 5.27025,3.56962 8.75568,3.56962 3.48544,0 6.39838,-1.19549 8.75568,-3.56962 2.34046,-2.37414 3.51911,-5.30393 3.51911,-8.78936 0,-3.51911 -1.17865,-6.46574 -3.51911,-8.83987 -2.3573,-2.37414 -5.27024,-3.56963 -8.75568,-3.56963 -3.48543,0 -6.39838,1.19549 -8.75568,3.56963 -2.3573,2.37413 -3.51911,5.32076 -3.51911,8.83987 0,3.48543 1.16181,6.41522 3.51911,8.78936 z"
   id="path32"
   style="stroke-width:1.68379" /><path
   class="st1"
   d="m 217.30932,244.11518 c -3.19919,3.21603 -7.10558,4.81562 -11.70231,4.81562 -4.61357,0 -8.50311,-1.59959 -11.68547,-4.81562 -3.18235,-3.21603 -4.76511,-7.10558 -4.76511,-11.68547 0,-4.61357 1.5996,-8.50312 4.76511,-11.70231 3.18236,-3.19919 7.0719,-4.79879 11.68547,-4.79879 4.61357,0 8.50312,1.5996 11.70231,4.79879 3.19919,3.19919 4.79879,7.10558 4.79879,11.70231 0,4.57989 -1.5996,8.46944 -4.79879,11.68547 z m -20.45799,-2.89611 c 2.34046,2.37413 5.27025,3.56962 8.75568,3.56962 3.48544,0 6.39838,-1.19549 8.75568,-3.56962 2.34047,-2.37414 3.51911,-5.30393 3.51911,-8.78936 0,-3.51911 -1.17864,-6.46574 -3.51911,-8.83987 -2.3573,-2.37414 -5.27024,-3.56963 -8.75568,-3.56963 -3.48543,0 -6.39838,1.19549 -8.75568,3.56963 -2.3573,2.37413 -3.51911,5.32076 -3.51911,8.83987 0,3.48543 1.16181,6.41522 3.51911,8.78936 z"
   id="path34"
   style="stroke-width:1.68379" /><path
   class="st1"
   d="m 233.69255,244.33407 h 13.72285 v 4.00741 h -17.96599 v -31.82354 h 4.2263 v 27.81613 z"
   id="path36"
   style="stroke-width:1.68379" />
<path
   class="st2"
   d="m 87.859912,65.448731 v 2.609867 c 0,6.280519 -2.239435,11.567604 -6.735141,15.894932 -4.495707,4.327328 -10.489982,6.482573 -18.03334,6.482573 -7.67806,0 -14.02593,-2.525678 -19.04361,-7.610709 -5.01768,-5.068193 -7.52652,-11.264523 -7.52652,-18.605826 0,-7.341304 2.50884,-13.537633 7.52652,-18.605827 5.01768,-5.068193 11.36555,-7.610709 19.04361,-7.610709 4.680923,0 8.974576,1.128136 12.880957,3.401246 3.906382,2.27311 6.920357,5.287086 9.058765,9.058764 l -4.495707,2.609868 c -1.599596,-3.081327 -3.956895,-5.556492 -7.088736,-7.391818 -3.13184,-1.835325 -6.5836,-2.744569 -10.355279,-2.744569 -6.331032,0 -11.483415,2.054218 -15.490823,6.145816 -4.007409,4.108435 -6.011114,9.142953 -6.011114,15.137229 0,5.977437 2.003705,11.028793 6.011114,15.137228 4.007408,4.108436 9.176629,6.145816 15.490823,6.145816 5.691194,0 10.254252,-1.431217 13.689174,-4.31049 3.434922,-2.879272 5.388113,-6.533086 5.859573,-10.961441 H 62.518944 v -4.78195 z"
   id="path42"
   style="stroke-width:1.68379" /><path
   class="st2"
   d="m 100.16838,38.8786 h 5.0682 v 50.681935 h -5.0682 z"
   id="path44"
   style="stroke-width:1.68379" /><path
   class="st2"
   d="m 135.64574,90.419265 c -4.63041,0 -8.60415,-1.09446 -11.90437,-3.300219 -3.30021,-2.188921 -5.607,-5.219734 -6.92035,-9.09244 l 4.34416,-2.525678 c 0.90925,3.131841 2.60987,5.590167 5.0682,7.341304 2.45832,1.767974 5.62384,2.643543 9.47971,2.643543 3.77168,0 6.70146,-0.825055 8.78936,-2.492002 2.10473,-1.666948 3.14867,-3.872706 3.14867,-6.617276 0,-2.660381 -0.95975,-4.664085 -2.89611,-6.011113 -1.93635,-1.347029 -5.1187,-2.74457 -9.5639,-4.192626 -5.25341,-1.734298 -8.73884,-3.13184 -10.42263,-4.192625 -3.85586,-2.323623 -5.79222,-5.674356 -5.79222,-10.069035 0,-4.293653 1.49857,-7.678061 4.49571,-10.170063 2.99714,-2.492002 6.68463,-3.721165 11.07931,-3.721165 3.95689,0 7.39181,1.027109 10.28792,3.081327 2.89611,2.054218 5.05136,4.664085 6.4489,7.863277 l -4.27681,2.390975 c -2.32363,-5.607005 -6.46574,-8.402089 -12.46001,-8.402089 -3.13185,0 -5.67436,0.774542 -7.59388,2.323624 -1.93635,1.549082 -2.89611,3.68749 -2.89611,6.448897 0,2.50884 0.87557,4.39468 2.60987,5.640681 1.7343,1.262839 4.61357,2.525678 8.62098,3.83903 1.83533,0.623001 3.14868,1.077623 3.94006,1.347028 0.79138,0.269406 1.95319,0.70719 3.4686,1.296515 1.5154,0.606162 2.64354,1.128136 3.36757,1.599596 0.72402,0.454622 1.59959,1.09446 2.64354,1.885839 1.04395,0.791379 1.78481,1.599596 2.23943,2.390975 0.45463,0.791379 0.87557,1.767975 1.22917,2.896111 0.35359,1.128136 0.53881,2.357299 0.53881,3.653814 0,4.293652 -1.56592,7.728574 -4.69776,10.321603 -3.13184,2.542515 -7.25712,3.822192 -12.37582,3.822192 z"
   id="path46"
   style="stroke-width:1.68379" /><path
   class="st2"
   d="m 211.01196,38.8786 v 50.681935 h -5.06819 V 46.556661 l -17.7471,29.685133 h -0.72403 L 169.74239,46.556661 v 43.003874 h -5.0682 V 38.8786 h 6.21317 L 187.84308,67.250381 204.79879,38.8786 Z"
   id="path48"
   style="stroke-width:1.68379" /><path
   class="st2"
   d="m 259.9596,89.560535 -4.69776,-12.460011 h -24.04446 l -4.69776,12.460011 h -5.35443 L 240.64658,38.8786 h 5.21973 l 19.4814,50.681935 z M 233.0022,72.318574 h 20.44115 L 243.22277,45.22647 Z"
   id="path50"
   style="stroke-width:1.68379" />
</svg>
